<?xml version="1.0" encoding="utf-8"?>
<!-- Generator: Adobe Illustrator 22.0.1, SVG Export Plug-In . SVG Version: 6.00 Build 0)  -->
<svg version="1.1" id="Capa_1" xmlns="http://www.w3.org/2000/svg" xmlns:xlink="http://www.w3.org/1999/xlink" x="0px" y="0px"
	 viewBox="0 0 512 512" style="enable-background:new 0 0 512 512;" xml:space="preserve">
<style type="text/css">
	.st0{fill:#0096DC;}
	.st1{fill:#006BC0;}
	.st2{fill:#FFFFFF;}
</style>
<circle class="st0" cx="256" cy="256" r="256"/>
<path class="st1" d="M504.4,318.3l-134-146L256,171.7l-121.1,0.8l19.9,236l82.1,102.9c6.3,0.5,12.6,0.7,19.1,0.7
	C397.4,512,483,407,504.4,318.3z"/>
<polygon class="st2" points="383.6,282.7 279.4,282.7 388.3,227.4 393,171.7 119,171.7 123.8,228.4 233.8,228.4 128.3,281.2 
	133.2,339.4 133.2,339.4 321.4,339.4 315.2,408.6 256,424.7 194.3,407.4 192.7,364.2 135.3,364.2 142.5,449.4 256,481.4 
	369.5,449.4 383.6,282.7 "/>
<g>
	<polygon class="st2" points="141.1,125.3 141.1,82.9 202,82.9 202,60 119,60 119,148.3 202,148.3 202,125.3 	"/>
	<polygon class="st2" points="237.7,94.5 237.7,83.9 298.3,83.9 298.3,82.9 298.3,60 215.3,60 215.3,114.7 274.8,114.7 274.8,125.3 
		215.3,125.3 215.3,148.3 298.3,148.3 298.3,125.3 298.3,94.5 	"/>
	<polygon class="st2" points="332.4,94.5 332.4,83.9 393,83.9 393,82.9 393,60 310,60 310,114.7 369.5,114.7 369.5,125.3 310,125.3 
		310,148.3 393,148.3 393,125.3 393,94.5 	"/>
</g>
</svg>
