<?xml version="1.0" encoding="utf-8"?>
<!-- Generator: Adobe Illustrator 22.0.1, SVG Export Plug-In . SVG Version: 6.00 Build 0)  -->
<svg version="1.1" id="Capa_1" xmlns="http://www.w3.org/2000/svg" xmlns:xlink="http://www.w3.org/1999/xlink" x="0px" y="0px"
	 viewBox="0 0 512 512" style="enable-background:new 0 0 512 512;" xml:space="preserve">
<style type="text/css">
	.st0{fill:#F36518;}
	.st1{fill:#E64C18;}
	.st2{fill:#FFFFFF;}
</style>
<circle class="st0" cx="256" cy="256" r="256"/>
<path class="st1" d="M504.4,318.3l-134-146L256,171.7l-121.1,0.8l19.9,236l82.1,102.9c6.3,0.5,12.6,0.7,19.1,0.7
	C397.4,512,483,407,504.4,318.3z"/>
<polygon class="st2" points="134.9,171.7 148.4,332 328.4,332 322.5,398.3 265.9,413.6 206.9,397.1 205.4,355.8 150.4,355.8 
	157.3,437.2 265.9,467.9 374.5,437.2 387.9,277.9 198.4,277.9 193.7,226 193.7,226 392.4,224.9 396.9,171.7 "/>
<g>
	<polygon class="st2" points="147.3,77.8 147.3,105.2 121.1,105.2 121.1,77.8 96.8,77.8 96.8,156.3 121.1,156.3 121.1,130.7 
		147.3,130.7 147.3,156.3 171.6,156.3 171.6,77.8 	"/>
	<polygon class="st2" points="258,77.8 183.2,77.8 183.2,105.2 207.5,105.2 207.5,156.9 233.6,156.9 233.6,105.2 258,105.2 	"/>
	<polygon class="st2" points="397.3,131.9 397.3,78.4 371.1,78.4 371.1,131.9 371.1,156.9 397.3,156.9 435,156.9 435,131.9 	"/>
	<polygon class="st2" points="331.6,78.4 313.3,106.4 295.1,78.4 268.9,78.4 268.9,156.9 295.1,156.9 295.1,117.9 313.3,145.9 
		331.6,117.9 331.6,156.9 357.8,156.9 357.8,78.4 	"/>
</g>
</svg>
