<?xml version="1.0" encoding="utf-8"?>
<!-- Generator: Adobe Illustrator 22.0.1, SVG Export Plug-In . SVG Version: 6.00 Build 0)  -->
<svg version="1.1" id="Capa_1" xmlns="http://www.w3.org/2000/svg" xmlns:xlink="http://www.w3.org/1999/xlink" x="0px" y="0px"
	 viewBox="0 0 512 512" style="enable-background:new 0 0 512 512;" xml:space="preserve">
<style type="text/css">
	.st0{fill:#39B54A;}
	.st1{fill:#19782F;}
	.st2{fill:#D2F9D5;}
</style>
<circle class="st0" cx="256" cy="256" r="256"/>
<path class="st1" d="M393,157c-3.7-3.7-89.4,24.2-110.6,34.4C266,199.2,278,204,278,204l-102-72.1l-9.9,234.7l94.2,145.1
	c4.5,0.3,9.1,0.4,13.7,0.4c110.3,0,201.3-80.8,228.5-186.5C502.4,325.5,411.1,175.1,393,157z"/>
<path class="st2" d="M363.3,195.1c-9.2-26.6-46.7-26.6-54-4.6c-7.3,22,17.4,34.8,55.9,47.6c38.5,12.8,62.3,46.7,57.7,76.9
	c-4.6,30.2-17.4,69.6-93.4,69.6c-47.5,0-73.9-29.7-87-52l43.1-25.9c0,0,14.7,31.1,42.1,31.1c27.5,0,38.5-9.2,38.5-30.2
	c0-25.6-88.9-34.8-102.6-78.8s4.6-106.3,68.7-101.7c40.1,2.9,62.6,22.5,73.9,36.9L363.3,195.1z"/>
<path class="st2" d="M163.6,131.9c0,0,0,154.8,0,175.9c0,21.1-18.3,32.1-36.6,28.4c-18.3-3.7-26.6-25.6-26.6-25.6l-42.1,28.4
	c0,0,9.2,42.1,66.9,45.8c57.7,3.7,90.7-31.1,90.7-60.5s0-192.4,0-192.4L163.6,131.9L163.6,131.9z"/>
</svg>
